<mxfile host="app.diagrams.net" modified="2021-12-10T08:43:14.069Z" agent="5.0 (Macintosh; Intel Mac OS X 10_15_7) AppleWebKit/537.36 (KHTML, like Gecko) Chrome/95.0.4638.69 Safari/537.36" etag="QxUSOmfbqZziO6U6zHKn" version="15.9.4" type="github">
  <diagram id="gWrWWZ-1tKsTDKTF5RUo" name="Page-1">
    <mxGraphModel dx="786" dy="523" grid="1" gridSize="10" guides="1" tooltips="1" connect="1" arrows="1" fold="1" page="1" pageScale="1" pageWidth="827" pageHeight="1169" math="0" shadow="0">
      <root>
        <mxCell id="0" />
        <mxCell id="1" parent="0" />
        <mxCell id="yIiPESADiMlIX4Emtudc-3" value="" style="rounded=0;whiteSpace=wrap;html=1;" vertex="1" parent="1">
          <mxGeometry x="30" y="30" width="230" height="400" as="geometry" />
        </mxCell>
        <mxCell id="yIiPESADiMlIX4Emtudc-4" value="" style="endArrow=none;html=1;rounded=0;" edge="1" parent="1">
          <mxGeometry width="50" height="50" relative="1" as="geometry">
            <mxPoint x="30" y="70" as="sourcePoint" />
            <mxPoint x="260" y="70" as="targetPoint" />
          </mxGeometry>
        </mxCell>
        <mxCell id="yIiPESADiMlIX4Emtudc-5" value="App Bar&lt;br&gt;" style="text;html=1;resizable=0;autosize=1;align=center;verticalAlign=middle;points=[];fillColor=none;strokeColor=none;rounded=0;" vertex="1" parent="1">
          <mxGeometry x="115" y="40" width="60" height="20" as="geometry" />
        </mxCell>
        <mxCell id="yIiPESADiMlIX4Emtudc-9" value="" style="group;verticalAlign=middle;align=left;" vertex="1" connectable="0" parent="1">
          <mxGeometry x="35" y="104" width="160" height="30" as="geometry" />
        </mxCell>
        <mxCell id="yIiPESADiMlIX4Emtudc-7" value="승표한테 3만원 보내기" style="text;html=1;resizable=0;autosize=1;align=left;verticalAlign=middle;points=[];fillColor=none;strokeColor=none;rounded=0;labelPosition=center;verticalLabelPosition=middle;horizontal=1;" vertex="1" parent="yIiPESADiMlIX4Emtudc-9">
          <mxGeometry y="4.996666666666666" width="120" height="20" as="geometry" />
        </mxCell>
        <mxCell id="yIiPESADiMlIX4Emtudc-36" value="" style="group" vertex="1" connectable="0" parent="1">
          <mxGeometry x="35" y="195" width="160" height="30" as="geometry" />
        </mxCell>
        <mxCell id="yIiPESADiMlIX4Emtudc-37" value="철학 과제 제출" style="text;html=1;resizable=0;autosize=1;align=left;verticalAlign=middle;points=[];fillColor=none;strokeColor=none;rounded=0;labelPosition=center;verticalLabelPosition=middle;horizontal=1;" vertex="1" parent="yIiPESADiMlIX4Emtudc-36">
          <mxGeometry y="5" width="80" height="20" as="geometry" />
        </mxCell>
        <mxCell id="yIiPESADiMlIX4Emtudc-38" value="&lt;font color=&quot;#990000&quot; style=&quot;font-size: 10px&quot;&gt;By 2021-12-20&lt;/font&gt;" style="text;html=1;resizable=0;autosize=1;align=center;verticalAlign=middle;points=[];fillColor=none;strokeColor=none;rounded=0;fontSize=10;" vertex="1" parent="yIiPESADiMlIX4Emtudc-36">
          <mxGeometry x="80" y="5" width="80" height="20" as="geometry" />
        </mxCell>
        <mxCell id="yIiPESADiMlIX4Emtudc-54" value="" style="shape=ellipse;dashed=0;strokeColor=none;shadow=1;fontSize=13;align=center;verticalAlign=top;labelPosition=center;verticalLabelPosition=bottom;html=1;aspect=fixed;fontColor=#000000;" vertex="1" parent="1">
          <mxGeometry x="220.5" y="350" width="30" height="30" as="geometry" />
        </mxCell>
        <mxCell id="yIiPESADiMlIX4Emtudc-55" value="" style="dashed=0;html=1;shape=mxgraph.gmdl.plus;strokeColor=#737373;strokeWidth=2;shadow=0;sketch=0;fontSize=9;fontColor=#000000;" vertex="1" parent="yIiPESADiMlIX4Emtudc-54">
          <mxGeometry x="9" y="9" width="12" height="12" as="geometry" />
        </mxCell>
        <mxCell id="yIiPESADiMlIX4Emtudc-66" value="" style="dashed=0;align=center;fontSize=12;shape=rect;fillColor=#ffffff;strokeColor=default;shadow=0;sketch=0;hachureGap=4;pointerEvents=0;fontFamily=Architects Daughter;fontSource=https%3A%2F%2Ffonts.googleapis.com%2Fcss%3Ffamily%3DArchitects%2BDaughter;fontColor=#000000;labelBorderColor=default;gradientColor=none;" vertex="1" parent="1">
          <mxGeometry x="30" y="392" width="230" height="38" as="geometry" />
        </mxCell>
        <mxCell id="yIiPESADiMlIX4Emtudc-67" value="Recents" style="dashed=0;html=1;shape=mxgraph.gmdl.recents;fillColor=#808080;strokeColor=none;fontColor=#808080;verticalAlign=top;spacingLeft=0;fontSize=10;labelPosition=center;verticalLabelPosition=bottom;align=center;spacingBottom=0;spacingTop=-6;sketch=0;hachureGap=4;pointerEvents=0;fontFamily=Architects Daughter;fontSource=https%3A%2F%2Ffonts.googleapis.com%2Fcss%3Ffamily%3DArchitects%2BDaughter;" vertex="1" parent="yIiPESADiMlIX4Emtudc-66">
          <mxGeometry x="0.15" y="0.5" width="20" height="20" relative="1" as="geometry">
            <mxPoint x="-10" y="-15" as="offset" />
          </mxGeometry>
        </mxCell>
        <mxCell id="yIiPESADiMlIX4Emtudc-68" value="Favorites" style="dashed=0;html=1;shape=mxgraph.gmdl.heart;fillColor=#00796B;strokeColor=none;fontColor=#00796B;verticalAlign=top;spacingLeft=0;fontSize=10;labelPosition=center;verticalLabelPosition=bottom;align=center;spacingBottom=0;spacingTop=-5;sketch=0;hachureGap=4;pointerEvents=0;fontFamily=Architects Daughter;fontSource=https%3A%2F%2Ffonts.googleapis.com%2Fcss%3Ffamily%3DArchitects%2BDaughter;" vertex="1" parent="yIiPESADiMlIX4Emtudc-66">
          <mxGeometry x="0.5" y="0.5" width="20" height="18" relative="1" as="geometry">
            <mxPoint x="-10" y="-14" as="offset" />
          </mxGeometry>
        </mxCell>
        <mxCell id="yIiPESADiMlIX4Emtudc-69" value="Nearby" style="dashed=0;html=1;shape=mxgraph.gmdl.nearby;fillColor=#808080;strokeColor=none;fontColor=#808080;verticalAlign=top;spacingLeft=0;fontSize=10;labelPosition=center;verticalLabelPosition=bottom;align=center;spacingBottom=0;spacingTop=-6;sketch=0;hachureGap=4;pointerEvents=0;fontFamily=Architects Daughter;fontSource=https%3A%2F%2Ffonts.googleapis.com%2Fcss%3Ffamily%3DArchitects%2BDaughter;" vertex="1" parent="yIiPESADiMlIX4Emtudc-66">
          <mxGeometry x="0.85" y="0.5" width="20" height="20" relative="1" as="geometry">
            <mxPoint x="-10" y="-15" as="offset" />
          </mxGeometry>
        </mxCell>
        <mxCell id="yIiPESADiMlIX4Emtudc-72" value="" style="group;verticalAlign=middle;align=left;" vertex="1" connectable="0" parent="1">
          <mxGeometry x="35" y="134" width="160" height="30" as="geometry" />
        </mxCell>
        <mxCell id="yIiPESADiMlIX4Emtudc-73" value="할머니께 전화 드리기" style="text;html=1;resizable=0;autosize=1;align=left;verticalAlign=middle;points=[];fillColor=none;strokeColor=none;rounded=0;labelPosition=center;verticalLabelPosition=middle;horizontal=1;" vertex="1" parent="yIiPESADiMlIX4Emtudc-72">
          <mxGeometry y="4.996666666666666" width="120" height="20" as="geometry" />
        </mxCell>
        <mxCell id="yIiPESADiMlIX4Emtudc-74" value="" style="group;verticalAlign=middle;align=left;" vertex="1" connectable="0" parent="1">
          <mxGeometry x="35" y="164" width="160" height="30" as="geometry" />
        </mxCell>
        <mxCell id="yIiPESADiMlIX4Emtudc-75" value="마트 들러서 간장 사오기" style="text;html=1;resizable=0;autosize=1;align=left;verticalAlign=middle;points=[];fillColor=none;strokeColor=none;rounded=0;labelPosition=center;verticalLabelPosition=middle;horizontal=1;" vertex="1" parent="yIiPESADiMlIX4Emtudc-74">
          <mxGeometry y="4.996666666666666" width="130" height="20" as="geometry" />
        </mxCell>
        <mxCell id="yIiPESADiMlIX4Emtudc-76" value="" style="group" vertex="1" connectable="0" parent="1">
          <mxGeometry x="35" y="225" width="160" height="30" as="geometry" />
        </mxCell>
        <mxCell id="yIiPESADiMlIX4Emtudc-77" value="학원비" style="text;html=1;resizable=0;autosize=1;align=left;verticalAlign=middle;points=[];fillColor=none;strokeColor=none;rounded=0;labelPosition=center;verticalLabelPosition=middle;horizontal=1;" vertex="1" parent="yIiPESADiMlIX4Emtudc-76">
          <mxGeometry y="5" width="50" height="20" as="geometry" />
        </mxCell>
        <mxCell id="yIiPESADiMlIX4Emtudc-78" value="&lt;font color=&quot;#990000&quot; style=&quot;font-size: 10px&quot;&gt;By 2021-12-23&lt;/font&gt;" style="text;html=1;resizable=0;autosize=1;align=center;verticalAlign=middle;points=[];fillColor=none;strokeColor=none;rounded=0;fontSize=10;" vertex="1" parent="yIiPESADiMlIX4Emtudc-76">
          <mxGeometry x="80" y="5" width="80" height="20" as="geometry" />
        </mxCell>
        <mxCell id="yIiPESADiMlIX4Emtudc-79" value="" style="group;verticalAlign=middle;align=left;fontColor=#B3B3B3;" vertex="1" connectable="0" parent="1">
          <mxGeometry x="35" y="255" width="195" height="60" as="geometry" />
        </mxCell>
        <mxCell id="yIiPESADiMlIX4Emtudc-80" value="&lt;font color=&quot;#808080&quot;&gt;따식이 선물 사기&lt;/font&gt;" style="text;html=1;resizable=0;autosize=1;align=left;verticalAlign=middle;points=[];fillColor=none;strokeColor=none;rounded=0;labelPosition=center;verticalLabelPosition=middle;horizontal=1;" vertex="1" parent="yIiPESADiMlIX4Emtudc-79">
          <mxGeometry y="4.996666666666666" width="90" height="20" as="geometry" />
        </mxCell>
        <mxCell id="yIiPESADiMlIX4Emtudc-81" value="" style="endArrow=none;html=1;rounded=0;fontSize=9;fontColor=#B3B3B3;strokeColor=#808080;" edge="1" parent="yIiPESADiMlIX4Emtudc-79">
          <mxGeometry width="50" height="50" relative="1" as="geometry">
            <mxPoint x="-2" y="15" as="sourcePoint" />
            <mxPoint x="85" y="15" as="targetPoint" />
          </mxGeometry>
        </mxCell>
        <mxCell id="yIiPESADiMlIX4Emtudc-86" value="" style="group;fontColor=#808080;" vertex="1" connectable="0" parent="yIiPESADiMlIX4Emtudc-79">
          <mxGeometry y="30" width="195" height="30" as="geometry" />
        </mxCell>
        <mxCell id="yIiPESADiMlIX4Emtudc-87" value="&lt;font color=&quot;#808080&quot;&gt;미시경제 발표 ppt 짜기&lt;/font&gt;" style="text;html=1;resizable=0;autosize=1;align=left;verticalAlign=middle;points=[];fillColor=none;strokeColor=none;rounded=0;labelPosition=center;verticalLabelPosition=middle;horizontal=1;" vertex="1" parent="yIiPESADiMlIX4Emtudc-86">
          <mxGeometry y="5" width="130" height="20" as="geometry" />
        </mxCell>
        <mxCell id="yIiPESADiMlIX4Emtudc-88" value="&lt;font style=&quot;font-size: 10px&quot; color=&quot;#808080&quot;&gt;By 2021-12-18&lt;/font&gt;" style="text;html=1;resizable=0;autosize=1;align=center;verticalAlign=middle;points=[];fillColor=none;strokeColor=none;rounded=0;fontSize=10;" vertex="1" parent="yIiPESADiMlIX4Emtudc-86">
          <mxGeometry x="115" y="5" width="80" height="20" as="geometry" />
        </mxCell>
        <mxCell id="yIiPESADiMlIX4Emtudc-89" value="" style="endArrow=none;html=1;rounded=0;fontSize=9;fontColor=#B3B3B3;strokeColor=#808080;" edge="1" parent="yIiPESADiMlIX4Emtudc-86" target="yIiPESADiMlIX4Emtudc-88">
          <mxGeometry width="50" height="50" relative="1" as="geometry">
            <mxPoint y="14.5" as="sourcePoint" />
            <mxPoint x="87" y="14.5" as="targetPoint" />
          </mxGeometry>
        </mxCell>
        <mxCell id="yIiPESADiMlIX4Emtudc-180" value="&lt;font style=&quot;font-size: 14px&quot;&gt;2012-12-10&lt;/font&gt;" style="text;html=1;resizable=0;autosize=1;align=center;verticalAlign=middle;points=[];fillColor=none;strokeColor=none;rounded=0;labelPosition=center;verticalLabelPosition=middle;horizontal=1;" vertex="1" parent="1">
          <mxGeometry x="35" y="76.99666666666667" width="90" height="20" as="geometry" />
        </mxCell>
        <mxCell id="yIiPESADiMlIX4Emtudc-182" value="" style="shape=ellipse;dashed=0;strokeColor=none;shadow=0;fontSize=13;align=center;verticalAlign=top;labelPosition=center;verticalLabelPosition=bottom;html=1;aspect=fixed;labelBorderColor=default;sketch=0;fontColor=#808080;fillColor=#FFFFFF;gradientColor=none;" vertex="1" parent="1">
          <mxGeometry x="226.5" y="72" width="30" height="30" as="geometry" />
        </mxCell>
        <mxCell id="yIiPESADiMlIX4Emtudc-183" value="" style="dashed=0;html=1;shape=mxgraph.gmdl.calendar;strokeColor=none;fillColor=#737373;shadow=0;sketch=0;labelBorderColor=default;fontSize=14;fontColor=#808080;" vertex="1" parent="yIiPESADiMlIX4Emtudc-182">
          <mxGeometry x="9.642857142857146" y="9.642857142857146" width="10.714285714285714" height="10.714285714285714" as="geometry" />
        </mxCell>
        <mxCell id="yIiPESADiMlIX4Emtudc-184" value="" style="shape=ellipse;dashed=0;strokeColor=none;shadow=0;fontSize=13;align=center;verticalAlign=top;labelPosition=center;verticalLabelPosition=bottom;html=1;aspect=fixed;labelBorderColor=default;sketch=0;fontColor=#808080;fillColor=#FFFFFF;gradientColor=none;" vertex="1" parent="1">
          <mxGeometry x="202" y="72" width="30" height="30" as="geometry" />
        </mxCell>
        <mxCell id="yIiPESADiMlIX4Emtudc-185" value="" style="dashed=0;html=1;shape=mxgraph.gmdl.calendar;strokeColor=none;fillColor=#737373;shadow=0;sketch=0;labelBorderColor=default;fontSize=14;fontColor=#808080;" vertex="1" parent="yIiPESADiMlIX4Emtudc-184">
          <mxGeometry x="9.642857142857146" y="9.642857142857146" width="10.714285714285714" height="10.714285714285714" as="geometry" />
        </mxCell>
      </root>
    </mxGraphModel>
  </diagram>
</mxfile>
